<svg xmlns="http://www.w3.org/2000/svg" width="930" height="750" font-family="Helvetica, Arial, sans-serif"><defs><marker id="fr" markerWidth="9" markerHeight="8" refX="9" refY="4" orient="auto" markerUnits="userSpaceOnUse"><path d="M0,0 L9,4 L0,8 z"/></marker></defs><rect width="100%" height="100%" fill="#fff"/><rect x="40" y="640" width="190" height="70" rx="8" fill="#fff" stroke="#8c8c8c"/><text x="135.0" y="703" font-size="12" text-anchor="middle">N(0, 0)</text><line x1="54.0" y1="664.0" x2="74.0" y2="664.0" stroke="#000" stroke-width="2"/><line x1="78.0" y1="664.0" x2="98.0" y2="664.0" stroke="#000" stroke-width="2"/><rect x="102.0" y="650" width="28" height="28" fill="#fff" stroke="#000" stroke-width="1.5"/><line x1="140.0" y1="664.0" x2="160.0" y2="664.0" stroke="#000" stroke-width="2"/><line x1="164.0" y1="664.0" x2="184.0" y2="664.0" stroke="#000" stroke-width="2"/><rect x="188.0" y="650" width="28" height="28" fill="#fff" stroke="#000" stroke-width="1.5"/><rect x="40" y="490" width="190" height="70" rx="8" fill="#fff" stroke="#8c8c8c"/><text x="135.0" y="553" font-size="12" text-anchor="middle">N(0, 1)</text><line x1="54.0" y1="514.0" x2="74.0" y2="514.0" stroke="#000" stroke-width="2"/><line x1="78.0" y1="514.0" x2="98.0" y2="514.0" stroke="#000" stroke-width="2"/><rect x="102.0" y="500" width="28" height="28" fill="#fff" stroke="#000" stroke-width="1.5"/><line x1="140.0" y1="514.0" x2="160.0" y2="514.0" stroke="#000" stroke-width="2"/><line x1="164.0" y1="514.0" x2="184.0" y2="514.0" stroke="#000" stroke-width="2"/><rect x="188.0" y="500" width="28" height="28" fill="#fff" stroke="#000" stroke-width="1.5"/><circle cx="202.0" cy="514.0" r="4.5" fill="#000"/><rect x="40" y="340" width="190" height="70" rx="8" fill="#fff" stroke="#8c8c8c"/><text x="135.0" y="403" font-size="12" text-anchor="middle">N(0, 2)</text><line x1="54.0" y1="364.0" x2="74.0" y2="364.0" stroke="#000" stroke-width="2"/><line x1="78.0" y1="364.0" x2="98.0" y2="364.0" stroke="#000" stroke-width="2"/><rect x="102.0" y="350" width="28" height="28" fill="#fff" stroke="#000" stroke-width="1.5"/><line x1="140.0" y1="364.0" x2="160.0" y2="364.0" stroke="#000" stroke-width="2"/><line x1="164.0" y1="364.0" x2="184.0" y2="364.0" stroke="#000" stroke-width="2"/><circle cx="174.0" cy="364.0" r="4.5" fill="#000"/><rect x="188.0" y="350" width="28" height="28" fill="#fff" stroke="#000" stroke-width="1.5"/><circle cx="202.0" cy="364.0" r="4.5" fill="#000"/><rect x="40" y="190" width="190" height="70" rx="8" fill="#fff" stroke="#8c8c8c"/><text x="135.0" y="253" font-size="12" text-anchor="middle">N(0, 3)</text><line x1="54.0" y1="214.0" x2="74.0" y2="214.0" stroke="#000" stroke-width="2"/><line x1="78.0" y1="214.0" x2="98.0" y2="214.0" stroke="#000" stroke-width="2"/><rect x="102.0" y="200" width="28" height="28" fill="#fff" stroke="#000" stroke-width="1.5"/><line x1="140.0" y1="214.0" x2="160.0" y2="214.0" stroke="#000" stroke-width="2"/><circle cx="150.0" cy="214.0" r="4.5" fill="#000"/><line x1="164.0" y1="214.0" x2="184.0" y2="214.0" stroke="#000" stroke-width="2"/><circle cx="174.0" cy="214.0" r="4.5" fill="#000"/><rect x="188.0" y="200" width="28" height="28" fill="#fff" stroke="#000" stroke-width="1.5"/><circle cx="202.0" cy="214.0" r="4.5" fill="#000"/><rect x="260" y="640" width="190" height="70" rx="8" fill="#fff" stroke="#8c8c8c"/><text x="355.0" y="703" font-size="12" text-anchor="middle">N(1, 0)</text><line x1="274.0" y1="664.0" x2="294.0" y2="664.0" stroke="#000" stroke-width="2"/><line x1="298.0" y1="664.0" x2="318.0" y2="664.0" stroke="#000" stroke-width="2"/><rect x="322.0" y="650" width="28" height="28" fill="#fff" stroke="#000" stroke-width="1.5"/><circle cx="336.0" cy="664.0" r="4.5" fill="#000"/><line x1="360.0" y1="664.0" x2="380.0" y2="664.0" stroke="#000" stroke-width="2"/><line x1="384.0" y1="664.0" x2="404.0" y2="664.0" stroke="#000" stroke-width="2"/><rect x="408.0" y="650" width="28" height="28" fill="#fff" stroke="#000" stroke-width="1.5"/><rect x="260" y="490" width="190" height="70" rx="8" fill="#fff" stroke="#8c8c8c"/><text x="355.0" y="553" font-size="12" text-anchor="middle">N(1, 1)</text><line x1="274.0" y1="514.0" x2="294.0" y2="514.0" stroke="#000" stroke-width="2"/><line x1="298.0" y1="514.0" x2="318.0" y2="514.0" stroke="#000" stroke-width="2"/><rect x="322.0" y="500" width="28" height="28" fill="#fff" stroke="#000" stroke-width="1.5"/><circle cx="336.0" cy="514.0" r="4.5" fill="#000"/><line x1="360.0" y1="514.0" x2="380.0" y2="514.0" stroke="#000" stroke-width="2"/><line x1="384.0" y1="514.0" x2="404.0" y2="514.0" stroke="#000" stroke-width="2"/><rect x="408.0" y="500" width="28" height="28" fill="#fff" stroke="#000" stroke-width="1.5"/><circle cx="422.0" cy="514.0" r="4.5" fill="#000"/><rect x="260" y="340" width="190" height="70" rx="8" fill="#fff" stroke="#8c8c8c"/><text x="355.0" y="403" font-size="12" text-anchor="middle">N(1, 2)</text><line x1="274.0" y1="364.0" x2="294.0" y2="364.0" stroke="#000" stroke-width="2"/><line x1="298.0" y1="364.0" x2="318.0" y2="364.0" stroke="#000" stroke-width="2"/><rect x="322.0" y="350" width="28" height="28" fill="#fff" stroke="#000" stroke-width="1.5"/><circle cx="336.0" cy="364.0" r="4.5" fill="#000"/><line x1="360.0" y1="364.0" x2="380.0" y2="364.0" stroke="#000" stroke-width="2"/><line x1="384.0" y1="364.0" x2="404.0" y2="364.0" stroke="#000" stroke-width="2"/><circle cx="394.0" cy="364.0" r="4.5" fill="#000"/><rect x="408.0" y="350" width="28" height="28" fill="#fff" stroke="#000" stroke-width="1.5"/><circle cx="422.0" cy="364.0" r="4.5" fill="#000"/><rect x="260" y="190" width="190" height="70" rx="8" fill="#fff" stroke="#8c8c8c"/><text x="355.0" y="253" font-size="12" text-anchor="middle">N(1, 3)</text><line x1="274.0" y1="214.0" x2="294.0" y2="214.0" stroke="#000" stroke-width="2"/><line x1="298.0" y1="214.0" x2="318.0" y2="214.0" stroke="#000" stroke-width="2"/><rect x="322.0" y="200" width="28" height="28" fill="#fff" stroke="#000" stroke-width="1.5"/><circle cx="336.0" cy="214.0" r="4.5" fill="#000"/><line x1="360.0" y1="214.0" x2="380.0" y2="214.0" stroke="#000" stroke-width="2"/><circle cx="370.0" cy="214.0" r="4.5" fill="#000"/><line x1="384.0" y1="214.0" x2="404.0" y2="214.0" stroke="#000" stroke-width="2"/><circle cx="394.0" cy="214.0" r="4.5" fill="#000"/><rect x="408.0" y="200" width="28" height="28" fill="#fff" stroke="#000" stroke-width="1.5"/><circle cx="422.0" cy="214.0" r="4.5" fill="#000"/><rect x="480" y="640" width="190" height="70" rx="8" fill="#fff" stroke="#8c8c8c"/><text x="575.0" y="703" font-size="12" text-anchor="middle">N(2, 0)</text><line x1="494.0" y1="664.0" x2="514.0" y2="664.0" stroke="#000" stroke-width="2"/><line x1="518.0" y1="664.0" x2="538.0" y2="664.0" stroke="#000" stroke-width="2"/><circle cx="528.0" cy="664.0" r="4.5" fill="#000"/><rect x="542.0" y="650" width="28" height="28" fill="#fff" stroke="#000" stroke-width="1.5"/><circle cx="556.0" cy="664.0" r="4.5" fill="#000"/><line x1="580.0" y1="664.0" x2="600.0" y2="664.0" stroke="#000" stroke-width="2"/><line x1="604.0" y1="664.0" x2="624.0" y2="664.0" stroke="#000" stroke-width="2"/><rect x="628.0" y="650" width="28" height="28" fill="#fff" stroke="#000" stroke-width="1.5"/><rect x="480" y="490" width="190" height="70" rx="8" fill="#fff" stroke="#8c8c8c"/><text x="575.0" y="553" font-size="12" text-anchor="middle">N(2, 1)</text><line x1="494.0" y1="514.0" x2="514.0" y2="514.0" stroke="#000" stroke-width="2"/><line x1="518.0" y1="514.0" x2="538.0" y2="514.0" stroke="#000" stroke-width="2"/><circle cx="528.0" cy="514.0" r="4.5" fill="#000"/><rect x="542.0" y="500" width="28" height="28" fill="#fff" stroke="#000" stroke-width="1.5"/><circle cx="556.0" cy="514.0" r="4.5" fill="#000"/><line x1="580.0" y1="514.0" x2="600.0" y2="514.0" stroke="#000" stroke-width="2"/><line x1="604.0" y1="514.0" x2="624.0" y2="514.0" stroke="#000" stroke-width="2"/><rect x="628.0" y="500" width="28" height="28" fill="#fff" stroke="#000" stroke-width="1.5"/><circle cx="642.0" cy="514.0" r="4.5" fill="#000"/><rect x="480" y="340" width="190" height="70" rx="8" fill="#fff" stroke="#8c8c8c"/><text x="575.0" y="403" font-size="12" text-anchor="middle">N(2, 2)</text><line x1="494.0" y1="364.0" x2="514.0" y2="364.0" stroke="#000" stroke-width="2"/><line x1="518.0" y1="364.0" x2="538.0" y2="364.0" stroke="#000" stroke-width="2"/><circle cx="528.0" cy="364.0" r="4.5" fill="#000"/><rect x="542.0" y="350" width="28" height="28" fill="#fff" stroke="#000" stroke-width="1.5"/><circle cx="556.0" cy="364.0" r="4.5" fill="#000"/><line x1="580.0" y1="364.0" x2="600.0" y2="364.0" stroke="#000" stroke-width="2"/><line x1="604.0" y1="364.0" x2="624.0" y2="364.0" stroke="#000" stroke-width="2"/><circle cx="614.0" cy="364.0" r="4.5" fill="#000"/><rect x="628.0" y="350" width="28" height="28" fill="#fff" stroke="#000" stroke-width="1.5"/><circle cx="642.0" cy="364.0" r="4.5" fill="#000"/><rect x="480" y="190" width="190" height="70" rx="8" fill="#fff" stroke="#8c8c8c"/><text x="575.0" y="253" font-size="12" text-anchor="middle">N(2, 3)</text><line x1="494.0" y1="214.0" x2="514.0" y2="214.0" stroke="#000" stroke-width="2"/><line x1="518.0" y1="214.0" x2="538.0" y2="214.0" stroke="#000" stroke-width="2"/><circle cx="528.0" cy="214.0" r="4.5" fill="#000"/><rect x="542.0" y="200" width="28" height="28" fill="#fff" stroke="#000" stroke-width="1.5"/><circle cx="556.0" cy="214.0" r="4.5" fill="#000"/><line x1="580.0" y1="214.0" x2="600.0" y2="214.0" stroke="#000" stroke-width="2"/><circle cx="590.0" cy="214.0" r="4.5" fill="#000"/><line x1="604.0" y1="214.0" x2="624.0" y2="214.0" stroke="#000" stroke-width="2"/><circle cx="614.0" cy="214.0" r="4.5" fill="#000"/><rect x="628.0" y="200" width="28" height="28" fill="#fff" stroke="#000" stroke-width="1.5"/><circle cx="642.0" cy="214.0" r="4.5" fill="#000"/><rect x="700" y="640" width="190" height="70" rx="8" fill="#fff" stroke="#8c8c8c"/><text x="795.0" y="703" font-size="12" text-anchor="middle">N(3, 0)</text><line x1="714.0" y1="664.0" x2="734.0" y2="664.0" stroke="#000" stroke-width="2"/><circle cx="724.0" cy="664.0" r="4.5" fill="#000"/><line x1="738.0" y1="664.0" x2="758.0" y2="664.0" stroke="#000" stroke-width="2"/><circle cx="748.0" cy="664.0" r="4.5" fill="#000"/><rect x="762.0" y="650" width="28" height="28" fill="#fff" stroke="#000" stroke-width="1.5"/><circle cx="776.0" cy="664.0" r="4.5" fill="#000"/><line x1="800.0" y1="664.0" x2="820.0" y2="664.0" stroke="#000" stroke-width="2"/><line x1="824.0" y1="664.0" x2="844.0" y2="664.0" stroke="#000" stroke-width="2"/><rect x="848.0" y="650" width="28" height="28" fill="#fff" stroke="#000" stroke-width="1.5"/><rect x="700" y="490" width="190" height="70" rx="8" fill="#fff" stroke="#8c8c8c"/><text x="795.0" y="553" font-size="12" text-anchor="middle">N(3, 1)</text><line x1="714.0" y1="514.0" x2="734.0" y2="514.0" stroke="#000" stroke-width="2"/><circle cx="724.0" cy="514.0" r="4.5" fill="#000"/><line x1="738.0" y1="514.0" x2="758.0" y2="514.0" stroke="#000" stroke-width="2"/><circle cx="748.0" cy="514.0" r="4.5" fill="#000"/><rect x="762.0" y="500" width="28" height="28" fill="#fff" stroke="#000" stroke-width="1.5"/><circle cx="776.0" cy="514.0" r="4.5" fill="#000"/><line x1="800.0" y1="514.0" x2="820.0" y2="514.0" stroke="#000" stroke-width="2"/><line x1="824.0" y1="514.0" x2="844.0" y2="514.0" stroke="#000" stroke-width="2"/><rect x="848.0" y="500" width="28" height="28" fill="#fff" stroke="#000" stroke-width="1.5"/><circle cx="862.0" cy="514.0" r="4.5" fill="#000"/><rect x="700" y="340" width="190" height="70" rx="8" fill="#fff" stroke="#8c8c8c"/><text x="795.0" y="403" font-size="12" text-anchor="middle">N(3, 2)</text><line x1="714.0" y1="364.0" x2="734.0" y2="364.0" stroke="#000" stroke-width="2"/><circle cx="724.0" cy="364.0" r="4.5" fill="#000"/><line x1="738.0" y1="364.0" x2="758.0" y2="364.0" stroke="#000" stroke-width="2"/><circle cx="748.0" cy="364.0" r="4.5" fill="#000"/><rect x="762.0" y="350" width="28" height="28" fill="#fff" stroke="#000" stroke-width="1.5"/><circle cx="776.0" cy="364.0" r="4.5" fill="#000"/><line x1="800.0" y1="364.0" x2="820.0" y2="364.0" stroke="#000" stroke-width="2"/><line x1="824.0" y1="364.0" x2="844.0" y2="364.0" stroke="#000" stroke-width="2"/><circle cx="834.0" cy="364.0" r="4.5" fill="#000"/><rect x="848.0" y="350" width="28" height="28" fill="#fff" stroke="#000" stroke-width="1.5"/><circle cx="862.0" cy="364.0" r="4.5" fill="#000"/><rect x="700" y="190" width="190" height="70" rx="8" fill="#fff" stroke="#8c8c8c"/><text x="795.0" y="253" font-size="12" text-anchor="middle">N(3, 3)</text><line x1="714.0" y1="214.0" x2="734.0" y2="214.0" stroke="#000" stroke-width="2"/><circle cx="724.0" cy="214.0" r="4.5" fill="#000"/><line x1="738.0" y1="214.0" x2="758.0" y2="214.0" stroke="#000" stroke-width="2"/><circle cx="748.0" cy="214.0" r="4.5" fill="#000"/><rect x="762.0" y="200" width="28" height="28" fill="#fff" stroke="#000" stroke-width="1.5"/><circle cx="776.0" cy="214.0" r="4.5" fill="#000"/><line x1="800.0" y1="214.0" x2="820.0" y2="214.0" stroke="#000" stroke-width="2"/><circle cx="810.0" cy="214.0" r="4.5" fill="#000"/><line x1="824.0" y1="214.0" x2="844.0" y2="214.0" stroke="#000" stroke-width="2"/><circle cx="834.0" cy="214.0" r="4.5" fill="#000"/><rect x="848.0" y="200" width="28" height="28" fill="#fff" stroke="#000" stroke-width="1.5"/><circle cx="862.0" cy="214.0" r="4.5" fill="#000"/><rect x="260" y="40" width="190" height="70" rx="8" fill="#fff" stroke="#8c8c8c"/><text x="355.0" y="103" font-size="12" text-anchor="middle">B(1, 3)</text><line x1="274.0" y1="64.0" x2="294.0" y2="64.0" stroke="#000" stroke-width="2"/><line x1="298.0" y1="64.0" x2="318.0" y2="64.0" stroke="#000" stroke-width="2"/><rect x="322.0" y="50" width="28" height="28" fill="#fff" stroke="#000" stroke-width="1.5"/><text x="336.0" y="69.0" font-size="14" font-weight="bold" text-anchor="middle">B</text><line x1="360.0" y1="64.0" x2="380.0" y2="64.0" stroke="#000" stroke-width="2"/><circle cx="370.0" cy="64.0" r="4.5" fill="#000"/><line x1="384.0" y1="64.0" x2="404.0" y2="64.0" stroke="#000" stroke-width="2"/><circle cx="394.0" cy="64.0" r="4.5" fill="#000"/><rect x="408.0" y="50" width="28" height="28" fill="#fff" stroke="#000" stroke-width="1.5"/><circle cx="422.0" cy="64.0" r="4.5" fill="#000"/><rect x="480" y="40" width="190" height="70" rx="8" fill="#fff" stroke="#8c8c8c"/><text x="575.0" y="103" font-size="12" text-anchor="middle">B(2, 3)</text><line x1="494.0" y1="64.0" x2="514.0" y2="64.0" stroke="#000" stroke-width="2"/><line x1="518.0" y1="64.0" x2="538.0" y2="64.0" stroke="#000" stroke-width="2"/><circle cx="528.0" cy="64.0" r="4.5" fill="#000"/><rect x="542.0" y="50" width="28" height="28" fill="#fff" stroke="#000" stroke-width="1.5"/><text x="556.0" y="69.0" font-size="14" font-weight="bold" text-anchor="middle">B</text><line x1="580.0" y1="64.0" x2="600.0" y2="64.0" stroke="#000" stroke-width="2"/><circle cx="590.0" cy="64.0" r="4.5" fill="#000"/><line x1="604.0" y1="64.0" x2="624.0" y2="64.0" stroke="#000" stroke-width="2"/><circle cx="614.0" cy="64.0" r="4.5" fill="#000"/><rect x="628.0" y="50" width="28" height="28" fill="#fff" stroke="#000" stroke-width="1.5"/><circle cx="642.0" cy="64.0" r="4.5" fill="#000"/><rect x="700" y="40" width="190" height="70" rx="8" fill="#fff" stroke="#8c8c8c"/><text x="795.0" y="103" font-size="12" text-anchor="middle">B(3, 3)</text><line x1="714.0" y1="64.0" x2="734.0" y2="64.0" stroke="#000" stroke-width="2"/><circle cx="724.0" cy="64.0" r="4.5" fill="#000"/><line x1="738.0" y1="64.0" x2="758.0" y2="64.0" stroke="#000" stroke-width="2"/><circle cx="748.0" cy="64.0" r="4.5" fill="#000"/><rect x="762.0" y="50" width="28" height="28" fill="#fff" stroke="#000" stroke-width="1.5"/><text x="776.0" y="69.0" font-size="14" font-weight="bold" text-anchor="middle">B</text><line x1="800.0" y1="64.0" x2="820.0" y2="64.0" stroke="#000" stroke-width="2"/><circle cx="810.0" cy="64.0" r="4.5" fill="#000"/><line x1="824.0" y1="64.0" x2="844.0" y2="64.0" stroke="#000" stroke-width="2"/><circle cx="834.0" cy="64.0" r="4.5" fill="#000"/><rect x="848.0" y="50" width="28" height="28" fill="#fff" stroke="#000" stroke-width="1.5"/><circle cx="862.0" cy="64.0" r="4.5" fill="#000"/><line x1="230.0" y1="675.0" x2="260.0" y2="675.0" stroke="#000" stroke-width="1.2" marker-end="url(#fr)"/><rect x="237.0" y="665.0" width="16" height="19" fill="#fff"/><text x="245.0" y="680.0" font-size="14" text-anchor="middle">λ</text><line x1="230.0" y1="525.0" x2="260.0" y2="525.0" stroke="#000" stroke-width="1.2" marker-end="url(#fr)"/><rect x="237.0" y="515.0" width="16" height="19" fill="#fff"/><text x="245.0" y="530.0" font-size="14" text-anchor="middle">λ</text><line x1="135.0" y1="560.0" x2="135.0" y2="640.0" stroke="#000" stroke-width="1.2" marker-end="url(#fr)"/><rect x="127.0" y="590.0" width="16" height="19" fill="#fff"/><text x="135.0" y="605.0" font-size="14" text-anchor="middle">μ</text><line x1="230.0" y1="375.0" x2="260.0" y2="375.0" stroke="#000" stroke-width="1.2" marker-end="url(#fr)"/><rect x="237.0" y="365.0" width="16" height="19" fill="#fff"/><text x="245.0" y="380.0" font-size="14" text-anchor="middle">λ</text><line x1="135.0" y1="410.0" x2="135.0" y2="490.0" stroke="#000" stroke-width="1.2" marker-end="url(#fr)"/><rect x="127.0" y="440.0" width="16" height="19" fill="#fff"/><text x="135.0" y="455.0" font-size="14" text-anchor="middle">μ</text><line x1="230.0" y1="225.0" x2="260.0" y2="225.0" stroke="#000" stroke-width="1.2" marker-end="url(#fr)"/><rect x="237.0" y="215.0" width="16" height="19" fill="#fff"/><text x="245.0" y="230.0" font-size="14" text-anchor="middle">λ</text><line x1="135.0" y1="260.0" x2="135.0" y2="340.0" stroke="#000" stroke-width="1.2" marker-end="url(#fr)"/><rect x="127.0" y="290.0" width="16" height="19" fill="#fff"/><text x="135.0" y="305.0" font-size="14" text-anchor="middle">μ</text><line x1="450.0" y1="675.0" x2="480.0" y2="675.0" stroke="#000" stroke-width="1.2" marker-end="url(#fr)"/><rect x="457.0" y="665.0" width="16" height="19" fill="#fff"/><text x="465.0" y="680.0" font-size="14" text-anchor="middle">λ</text><line x1="303.6666666666667" y1="640.0" x2="186.33333333333334" y2="560.0" stroke="#000" stroke-width="1.2" marker-end="url(#fr)"/><rect x="237.0" y="590.0" width="16" height="19" fill="#fff"/><text x="245.0" y="605.0" font-size="14" text-anchor="middle">μ</text><line x1="450.0" y1="525.0" x2="480.0" y2="525.0" stroke="#000" stroke-width="1.2" marker-end="url(#fr)"/><rect x="457.0" y="515.0" width="16" height="19" fill="#fff"/><text x="465.0" y="530.0" font-size="14" text-anchor="middle">λ</text><line x1="303.6666666666667" y1="490.0" x2="186.33333333333334" y2="410.0" stroke="#000" stroke-width="1.2" marker-end="url(#fr)"/><rect x="237.0" y="440.0" width="16" height="19" fill="#fff"/><text x="245.0" y="455.0" font-size="14" text-anchor="middle">μ</text><line x1="355.0" y1="560.0" x2="355.0" y2="640.0" stroke="#000" stroke-width="1.2" marker-end="url(#fr)"/><rect x="347.0" y="590.0" width="16" height="19" fill="#fff"/><text x="355.0" y="605.0" font-size="14" text-anchor="middle">μ</text><line x1="450.0" y1="375.0" x2="480.0" y2="375.0" stroke="#000" stroke-width="1.2" marker-end="url(#fr)"/><rect x="457.0" y="365.0" width="16" height="19" fill="#fff"/><text x="465.0" y="380.0" font-size="14" text-anchor="middle">λ</text><line x1="303.6666666666667" y1="340.0" x2="186.33333333333334" y2="260.0" stroke="#000" stroke-width="1.2" marker-end="url(#fr)"/><rect x="237.0" y="290.0" width="16" height="19" fill="#fff"/><text x="245.0" y="305.0" font-size="14" text-anchor="middle">μ</text><line x1="355.0" y1="410.0" x2="355.0" y2="490.0" stroke="#000" stroke-width="1.2" marker-end="url(#fr)"/><rect x="347.0" y="440.0" width="16" height="19" fill="#fff"/><text x="355.0" y="455.0" font-size="14" text-anchor="middle">μ</text><line x1="450.0" y1="225.0" x2="480.0" y2="225.0" stroke="#000" stroke-width="1.2" marker-end="url(#fr)"/><rect x="457.0" y="215.0" width="16" height="19" fill="#fff"/><text x="465.0" y="230.0" font-size="14" text-anchor="middle">λ</text><line x1="355.0" y1="190.0" x2="355.0" y2="110.0" stroke="#000" stroke-width="1.2" marker-end="url(#fr)"/><rect x="347.0" y="140.0" width="16" height="19" fill="#fff"/><text x="355.0" y="155.0" font-size="14" text-anchor="middle">μ</text><line x1="355.0" y1="260.0" x2="355.0" y2="340.0" stroke="#000" stroke-width="1.2" marker-end="url(#fr)"/><rect x="347.0" y="290.0" width="16" height="19" fill="#fff"/><text x="355.0" y="305.0" font-size="14" text-anchor="middle">μ</text><line x1="670.0" y1="675.0" x2="700.0" y2="675.0" stroke="#000" stroke-width="1.2" marker-end="url(#fr)"/><rect x="677.0" y="665.0" width="16" height="19" fill="#fff"/><text x="685.0" y="680.0" font-size="14" text-anchor="middle">λ</text><line x1="523.6666666666666" y1="640.0" x2="406.3333333333333" y2="560.0" stroke="#000" stroke-width="1.2" marker-end="url(#fr)"/><rect x="457.0" y="590.0" width="16" height="19" fill="#fff"/><text x="465.0" y="605.0" font-size="14" text-anchor="middle">μ</text><line x1="670.0" y1="525.0" x2="700.0" y2="525.0" stroke="#000" stroke-width="1.2" marker-end="url(#fr)"/><rect x="677.0" y="515.0" width="16" height="19" fill="#fff"/><text x="685.0" y="530.0" font-size="14" text-anchor="middle">λ</text><line x1="523.6666666666666" y1="490.0" x2="406.3333333333333" y2="410.0" stroke="#000" stroke-width="1.2" marker-end="url(#fr)"/><rect x="457.0" y="440.0" width="16" height="19" fill="#fff"/><text x="465.0" y="455.0" font-size="14" text-anchor="middle">μ</text><line x1="575.0" y1="560.0" x2="575.0" y2="640.0" stroke="#000" stroke-width="1.2" marker-end="url(#fr)"/><rect x="567.0" y="590.0" width="16" height="19" fill="#fff"/><text x="575.0" y="605.0" font-size="14" text-anchor="middle">μ</text><line x1="670.0" y1="375.0" x2="700.0" y2="375.0" stroke="#000" stroke-width="1.2" marker-end="url(#fr)"/><rect x="677.0" y="365.0" width="16" height="19" fill="#fff"/><text x="685.0" y="380.0" font-size="14" text-anchor="middle">λ</text><line x1="523.6666666666666" y1="340.0" x2="406.3333333333333" y2="260.0" stroke="#000" stroke-width="1.2" marker-end="url(#fr)"/><rect x="457.0" y="290.0" width="16" height="19" fill="#fff"/><text x="465.0" y="305.0" font-size="14" text-anchor="middle">μ</text><line x1="575.0" y1="410.0" x2="575.0" y2="490.0" stroke="#000" stroke-width="1.2" marker-end="url(#fr)"/><rect x="567.0" y="440.0" width="16" height="19" fill="#fff"/><text x="575.0" y="455.0" font-size="14" text-anchor="middle">μ</text><line x1="670.0" y1="225.0" x2="700.0" y2="225.0" stroke="#000" stroke-width="1.2" marker-end="url(#fr)"/><rect x="677.0" y="215.0" width="16" height="19" fill="#fff"/><text x="685.0" y="230.0" font-size="14" text-anchor="middle">λ</text><line x1="575.0" y1="190.0" x2="575.0" y2="110.0" stroke="#000" stroke-width="1.2" marker-end="url(#fr)"/><rect x="567.0" y="140.0" width="16" height="19" fill="#fff"/><text x="575.0" y="155.0" font-size="14" text-anchor="middle">μ</text><line x1="575.0" y1="260.0" x2="575.0" y2="340.0" stroke="#000" stroke-width="1.2" marker-end="url(#fr)"/><rect x="567.0" y="290.0" width="16" height="19" fill="#fff"/><text x="575.0" y="305.0" font-size="14" text-anchor="middle">μ</text><line x1="743.6666666666666" y1="640.0" x2="626.3333333333334" y2="560.0" stroke="#000" stroke-width="1.2" marker-end="url(#fr)"/><rect x="677.0" y="590.0" width="16" height="19" fill="#fff"/><text x="685.0" y="605.0" font-size="14" text-anchor="middle">μ</text><line x1="743.6666666666666" y1="490.0" x2="626.3333333333334" y2="410.0" stroke="#000" stroke-width="1.2" marker-end="url(#fr)"/><rect x="677.0" y="440.0" width="16" height="19" fill="#fff"/><text x="685.0" y="455.0" font-size="14" text-anchor="middle">μ</text><line x1="795.0" y1="560.0" x2="795.0" y2="640.0" stroke="#000" stroke-width="1.2" marker-end="url(#fr)"/><rect x="787.0" y="590.0" width="16" height="19" fill="#fff"/><text x="795.0" y="605.0" font-size="14" text-anchor="middle">μ</text><line x1="743.6666666666666" y1="340.0" x2="626.3333333333334" y2="260.0" stroke="#000" stroke-width="1.2" marker-end="url(#fr)"/><rect x="677.0" y="290.0" width="16" height="19" fill="#fff"/><text x="685.0" y="305.0" font-size="14" text-anchor="middle">μ</text><line x1="795.0" y1="410.0" x2="795.0" y2="490.0" stroke="#000" stroke-width="1.2" marker-end="url(#fr)"/><rect x="787.0" y="440.0" width="16" height="19" fill="#fff"/><text x="795.0" y="455.0" font-size="14" text-anchor="middle">μ</text><line x1="795.0" y1="190.0" x2="795.0" y2="110.0" stroke="#000" stroke-width="1.2" marker-end="url(#fr)"/><rect x="787.0" y="140.0" width="16" height="19" fill="#fff"/><text x="795.0" y="155.0" font-size="14" text-anchor="middle">μ</text><line x1="795.0" y1="260.0" x2="795.0" y2="340.0" stroke="#000" stroke-width="1.2" marker-end="url(#fr)"/><rect x="787.0" y="290.0" width="16" height="19" fill="#fff"/><text x="795.0" y="305.0" font-size="14" text-anchor="middle">μ</text><line x1="450.0" y1="75.0" x2="480.0" y2="75.0" stroke="#000" stroke-width="1.2" marker-end="url(#fr)"/><rect x="457.0" y="65.0" width="16" height="19" fill="#fff"/><text x="465.0" y="80.0" font-size="14" text-anchor="middle">λ</text><line x1="303.6666666666667" y1="110.0" x2="186.33333333333334" y2="190.0" stroke="#000" stroke-width="1.2" marker-end="url(#fr)"/><rect x="237.0" y="140.0" width="16" height="19" fill="#fff"/><text x="245.0" y="155.0" font-size="14" text-anchor="middle">μ</text><line x1="670.0" y1="75.0" x2="700.0" y2="75.0" stroke="#000" stroke-width="1.2" marker-end="url(#fr)"/><rect x="677.0" y="65.0" width="16" height="19" fill="#fff"/><text x="685.0" y="80.0" font-size="14" text-anchor="middle">λ</text><line x1="523.6666666666666" y1="110.0" x2="406.3333333333333" y2="190.0" stroke="#000" stroke-width="1.2" marker-end="url(#fr)"/><rect x="457.0" y="140.0" width="16" height="19" fill="#fff"/><text x="465.0" y="155.0" font-size="14" text-anchor="middle">μ</text><line x1="743.6666666666666" y1="110.0" x2="626.3333333333334" y2="190.0" stroke="#000" stroke-width="1.2" marker-end="url(#fr)"/><rect x="677.0" y="140.0" width="16" height="19" fill="#fff"/><text x="685.0" y="155.0" font-size="14" text-anchor="middle">μ</text></svg>